<svg width="100" height="100" viewBox="0 0 100 100" fill="none" xmlns="http://www.w3.org/2000/svg">
<path d="M74.4434 36.8198C74.0722 37.1078 67.518 40.801 67.518 49.013C67.518 58.5115 75.858 61.8719 76.1076 61.9551C76.0692 62.1599 74.7827 66.5572 71.7104 71.0376C68.9709 74.9804 66.1098 78.9168 61.7574 78.9168C57.4049 78.9168 56.2848 76.3885 51.2603 76.3885C46.3638 76.3885 44.6229 79 40.6417 79C36.6605 79 33.8826 75.3516 30.6887 70.8712C26.9891 65.6099 24 57.4362 24 49.6787C24 37.2358 32.0904 30.6368 40.0528 30.6368C44.2836 30.6368 47.8104 33.4146 50.4666 33.4146C52.9949 33.4146 56.9377 30.4703 61.751 30.4703C63.5752 30.4703 70.1294 30.6368 74.4434 36.8198ZM59.4659 25.2026C61.4565 22.8408 62.8647 19.5637 62.8647 16.2865C62.8647 15.8321 62.8263 15.3712 62.7431 15C59.5044 15.1216 55.6512 17.157 53.3277 19.8517C51.5036 21.9255 49.801 25.2026 49.801 28.5246C49.801 29.0238 49.8842 29.5231 49.9226 29.6831C50.1274 29.7215 50.4602 29.7663 50.7931 29.7663C53.699 29.7663 57.3537 27.8205 59.4659 25.2026Z" fill="white"/>
</svg>
