<svg width="100" height="100" viewBox="0 0 100 100" fill="none" xmlns="http://www.w3.org/2000/svg">
<path d="M50.1407 82L59.1325 31.4292C67.7034 31.4292 70.4068 32.3691 70.7972 36.2053C70.7972 36.2053 76.5467 34.0615 79.4466 29.7075C68.1305 24.4638 56.7604 24.2273 56.7604 24.2273L50.1257 32.3083L50.1407 32.3072L43.506 24.2261C43.506 24.2261 32.1356 24.4628 20.821 29.7065C23.7184 34.0605 29.4702 36.2042 29.4702 36.2042C29.8628 32.3678 32.563 31.428 41.0763 31.4219L50.1407 82Z" fill="white"/>
<path d="M50.1371 21.8932C59.2846 21.8232 69.7549 23.3083 80.4734 27.9799C81.906 25.4014 82.2742 24.2618 82.2742 24.2618C70.5574 19.6262 59.5847 18.0398 50.1359 18C40.6875 18.0398 29.7153 19.6265 18 24.2618C18 24.2618 18.5226 25.6655 19.7996 27.9799C30.516 23.3083 40.9881 21.8232 50.1359 21.8932H50.1371Z" fill="white"/>
</svg>
